<svg width="24" height="25" viewBox="0 0 24 25" fill="none" xmlns="http://www.w3.org/2000/svg">
<g id="apple 1" clip-path="url(#clip0_43_556)">
<g id="Group">
<g id="Group_2">
<path id="Vector" d="M16.7262 0.97876C15.4853 1.06459 14.035 1.85887 13.1898 2.89317C12.4188 3.83147 11.7845 5.22509 12.0318 6.57944C13.3876 6.62162 14.7885 5.80843 15.6003 4.75667C16.3596 3.77764 16.9342 2.39275 16.7262 0.97876Z" fill="white"/>
</g>
</g>
<g id="Group_3">
<g id="Group_4">
<path id="Vector_2" d="M21.6295 8.78753C20.438 7.29353 18.7637 6.42651 17.1824 6.42651C15.0949 6.42651 14.2118 7.42591 12.7615 7.42591C11.266 7.42591 10.1299 6.42942 8.32459 6.42942C6.55128 6.42942 4.66305 7.51319 3.46582 9.3665C1.78271 11.9763 2.07074 16.883 4.79834 21.0625C5.77446 22.5579 7.07789 24.2396 8.78282 24.2541C10.3001 24.2687 10.7278 23.2809 12.7833 23.2707C14.8388 23.2591 15.2287 24.2672 16.7431 24.2512C18.4494 24.2381 19.8242 22.3746 20.8003 20.8792C21.5 19.807 21.7604 19.2673 22.303 18.057C18.3563 16.5543 17.7235 10.942 21.6295 8.78753Z" fill="white"/>
</g>
</g>
</g>
<defs>
<clipPath id="clip0_43_556">
<rect width="23.2757" height="23.2757" fill="white" transform="translate(0.724609 0.978516)"/>
</clipPath>
</defs>
</svg>
