<svg width="24" height="25" viewBox="0 0 24 25" fill="none" xmlns="http://www.w3.org/2000/svg">
<g id="instagram 1" clip-path="url(#clip0_43_551)">
<path id="Vector" d="M23.4269 7.82187C23.3723 6.58515 23.1723 5.73491 22.8858 4.99816C22.5903 4.21613 22.1356 3.51598 21.5399 2.93393C20.9578 2.34284 20.2531 1.88353 19.4801 1.59259C18.7391 1.3061 17.8933 1.10611 16.6566 1.05158C15.4106 0.992436 15.0151 0.97876 11.855 0.97876C8.69485 0.97876 8.2993 0.992436 7.05796 1.04696C5.82123 1.10149 4.97099 1.30166 4.23443 1.58798C3.45221 1.88353 2.75206 2.33822 2.17002 2.93393C1.57892 3.51598 1.11979 4.22075 0.828678 4.99372C0.542186 5.73491 0.342193 6.58053 0.287665 7.81725C0.22852 9.06322 0.214844 9.45876 0.214844 12.6189C0.214844 15.779 0.22852 16.1745 0.283048 17.4159C0.337575 18.6526 0.537746 19.5028 0.824237 20.2396C1.11979 21.0216 1.57892 21.7218 2.17002 22.3038C2.75206 22.8949 3.45683 23.3542 4.22981 23.6451C4.97099 23.9316 5.81661 24.1316 7.05352 24.1862C8.29468 24.2409 8.69041 24.2544 11.8505 24.2544C15.0106 24.2544 15.4062 24.2409 16.6475 24.1862C17.8842 24.1316 18.7345 23.9316 19.471 23.6451C21.0353 23.0404 22.272 21.8036 22.8768 20.2396C23.1631 19.4984 23.3633 18.6526 23.4178 17.4159C23.4723 16.1745 23.486 15.779 23.486 12.6189C23.486 9.45876 23.4814 9.06322 23.4269 7.82187ZM21.3308 17.3249C21.2808 18.4617 21.0898 19.0755 20.9307 19.4847C20.5396 20.4987 19.7348 21.3035 18.7208 21.6946C18.3116 21.8537 17.6933 22.0447 16.561 22.0946C15.3333 22.1493 14.9652 22.1628 11.8596 22.1628C8.75399 22.1628 8.38118 22.1493 7.15795 22.0946C6.02122 22.0447 5.40739 21.8537 4.99817 21.6946C4.49357 21.5081 4.03426 21.2125 3.66144 20.8261C3.27496 20.4486 2.97941 19.9939 2.79291 19.4893C2.63377 19.0801 2.44283 18.4617 2.39292 17.3295C2.33822 16.1019 2.32472 15.7335 2.32472 12.6279C2.32472 9.52235 2.33822 9.14954 2.39292 7.92649C2.44283 6.78976 2.63377 6.17592 2.79291 5.7667C2.97941 5.26192 3.27496 4.80279 3.66606 4.4298C4.04331 4.04331 4.49801 3.74776 5.00278 3.56144C5.41201 3.4023 6.03046 3.21137 7.16257 3.16128C8.39024 3.10675 8.75861 3.09308 11.864 3.09308C14.9742 3.09308 15.3424 3.10675 16.5656 3.16128C17.7024 3.21137 18.3162 3.4023 18.7254 3.56144C19.23 3.74776 19.6893 4.04331 20.0621 4.4298C20.4486 4.80723 20.7442 5.26192 20.9307 5.7667C21.0898 6.17592 21.2808 6.7942 21.3308 7.92649C21.3854 9.15415 21.399 9.52235 21.399 12.6279C21.399 15.7335 21.3854 16.0973 21.3308 17.3249Z" fill="white"/>
<path id="Vector_2" d="M11.8552 6.63989C8.55422 6.63989 5.87598 9.31796 5.87598 12.6191C5.87598 15.9202 8.55422 18.5983 11.8552 18.5983C15.1563 18.5983 17.8344 15.9202 17.8344 12.6191C17.8344 9.31796 15.1563 6.63989 11.8552 6.63989ZM11.8552 16.4976C9.71368 16.4976 7.97662 14.7608 7.97662 12.6191C7.97662 10.4774 9.71368 8.74053 11.8552 8.74053C13.9968 8.74053 15.7337 10.4774 15.7337 12.6191C15.7337 14.7608 13.9968 16.4976 11.8552 16.4976Z" fill="white"/>
<path id="Vector_3" d="M19.4667 6.40344C19.4667 7.17428 18.8417 7.79931 18.0707 7.79931C17.2998 7.79931 16.6748 7.17428 16.6748 6.40344C16.6748 5.63241 17.2998 5.00757 18.0707 5.00757C18.8417 5.00757 19.4667 5.63241 19.4667 6.40344Z" fill="white"/>
</g>
<defs>
<clipPath id="clip0_43_551">
<rect width="23.2757" height="23.2757" fill="white" transform="translate(0.173828 0.97876)"/>
</clipPath>
</defs>
</svg>
